<svg width="129" height="144" viewBox="0 0 129 144" fill="none" xmlns="http://www.w3.org/2000/svg">
<path d="M76.9788 2.77422C78.5135 3.64206 80.046 4.51437 81.555 5.42608C83.8719 6.82383 86.214 8.17456 88.557 9.52813C94.2315 12.8253 99.8579 16.1992 105.479 19.5867C106.302 20.0785 107.126 20.5703 107.974 21.077C110.191 22.403 112.399 23.742 114.604 25.0867C115.248 25.4712 115.892 25.8556 116.556 26.2518C122.519 29.9379 125.69 34.2249 128.479 40.5867C128.867 43.6082 128.867 43.6082 128.883 46.8323C128.902 48.6548 128.902 48.6548 128.921 50.5142C128.918 51.8143 128.915 53.1144 128.912 54.4539C128.917 55.8162 128.922 57.1785 128.928 58.5409C128.937 61.3904 128.935 64.2396 128.925 67.0892C128.913 70.7229 128.934 74.3556 128.963 77.9892C128.981 80.8015 128.981 83.6137 128.975 86.4261C128.975 88.4112 128.992 90.3963 129.009 92.3814C128.949 100.235 128.507 106.316 122.882 112.279C118.468 116.421 113.187 119.251 107.916 122.149C106.063 123.187 104.21 124.226 102.358 125.266C101.4 125.804 100.443 126.341 99.4559 126.894C93.4146 130.329 87.4598 133.912 81.5001 137.485C80.6242 138.007 79.7484 138.529 78.846 139.067C78.0737 139.53 77.3014 139.993 76.5057 140.47C70.6108 143.717 63.9982 143.257 57.4788 142.587C53.8188 141.439 50.6799 139.727 47.4027 137.747C45.0858 136.35 42.7436 134.999 40.4007 133.645C35.6323 130.875 30.899 128.051 26.1761 125.204C23.6986 123.719 21.2085 122.257 18.7132 120.802C10.7431 116.086 3.54446 111.784 0.478836 102.587C0.370078 100.621 0.31994 98.6508 0.301834 96.6817C0.288999 95.4665 0.276164 94.2512 0.262939 92.9992C0.255553 91.6836 0.248166 90.368 0.240555 89.0125C0.236479 88.3412 0.232402 87.6699 0.228203 86.9783C0.207356 83.4224 0.193053 79.8665 0.18367 76.3106C0.172633 72.6534 0.138258 68.9967 0.0984955 65.3397C0.0722344 62.5145 0.0639678 59.6895 0.0603867 56.8642C0.0531993 54.8657 0.0268 52.8673 0 50.869C0.0187151 42.9942 0.431622 36.985 5.98727 30.9475C11.1227 26.0237 17.7005 22.7915 23.8538 19.3367C25.5964 18.348 27.3376 17.3568 29.0787 16.3657C30.8008 15.3859 32.5244 14.4087 34.2479 13.4314C39.367 10.5086 44.4343 7.49941 49.4901 4.46856C57.9625 -0.567244 67.8882 -1.64537 76.9788 2.77422Z" fill="#2D6317"/>
<path d="M67.4789 16.5871C70.2562 18.8357 71.1578 21.1092 72.4164 24.3996C75.1588 30.1883 78.9819 31.9293 84.7367 34.3332C89.1156 36.3355 89.1156 36.3355 90.4789 38.5871C90.5402 41.3734 90.4687 44.0048 90.2914 46.7746C89.9747 54.0121 89.9747 54.0121 93.4164 60.2121C93.9591 60.7896 94.5018 61.3671 95.0609 61.9621C97.4455 64.6949 97.6096 67.0578 97.4789 70.5871C95.8598 73.5362 94.1838 75.8671 91.8344 78.2668C89.5851 82.117 90.3956 86.3462 90.684 90.6554C90.8228 94.268 90.6324 96.3308 88.7562 99.4621C86.4956 101.571 84.8542 102.591 81.9789 103.65C75.2672 106.435 72.8533 110.374 69.5297 116.661C68.4789 118.587 68.4789 118.587 67.4789 119.587C67.2481 120.935 67.0674 122.291 66.9164 123.65C66.772 124.949 66.6276 126.248 66.4789 127.587C65.1589 127.587 63.8389 127.587 62.4789 127.587C62.417 126.432 62.3551 125.277 62.2914 124.087C61.7722 119.766 60.1064 117.03 57.6937 113.478C56.077 110.962 55.1696 108.488 54.4789 105.587C54.8089 104.927 55.1389 104.267 55.4789 103.587C59.2638 105.101 59.4861 105.602 61.4789 109.587C61.8089 105.297 62.1389 101.007 62.4789 96.5871C62.8089 96.5871 63.1389 96.5871 63.4789 96.5871C63.9739 102.032 63.9739 102.032 64.4789 107.587C65.4689 106.102 65.4689 106.102 66.4789 104.587C66.8089 106.237 67.1389 107.887 67.4789 109.587C67.9739 108.515 68.4689 107.442 68.9789 106.337C71.507 101.884 74.8453 100.413 79.4789 98.5871C80.4689 98.1746 81.4589 97.7621 82.4789 97.3371C83.1389 97.0896 83.7989 96.8421 84.4789 96.5871C84.4789 93.6171 84.4789 90.6471 84.4789 87.5871C81.3704 87.3369 81.3704 87.3369 78.6664 89.2121C75.4789 90.5871 75.4789 90.5871 72.1039 89.7746C71.2376 89.3827 70.3714 88.9908 69.4789 88.5871C71.9947 85.6405 74.7077 84.4903 78.2289 82.9621C84.1831 80.0645 88.5047 76.6087 91.4789 70.5871C91.9105 67.5375 91.8539 66.164 90.1664 63.5675C89.6095 62.9759 89.0526 62.3842 88.4789 61.7746C87.922 61.17 87.3651 60.5654 86.7914 59.9425C86.3583 59.4952 85.9251 59.0479 85.4789 58.5871C79.9205 59.4005 75.337 61.9524 70.3422 64.4074C69.3973 64.7967 68.4524 65.186 67.4789 65.5871C66.4889 65.0921 66.4889 65.0921 65.4789 64.5871C65.4789 65.5771 65.4789 66.5671 65.4789 67.5871C64.8189 67.5871 64.1589 67.5871 63.4789 67.5871C63.4789 69.2371 63.4789 70.8871 63.4789 72.5871C63.1489 72.5871 62.8189 72.5871 62.4789 72.5871C62.3268 71.5236 62.1747 70.4601 62.0179 69.3644C61.3095 66.8848 60.7986 65.8284 58.7201 64.2594C56.4668 63.1032 54.1998 62.1036 51.8539 61.1496C51.0521 60.7996 50.2503 60.4496 49.4242 60.089C47.4522 59.2322 45.4667 58.4065 43.4789 57.5871C39.2247 62.0555 39.2247 62.0555 37.3031 67.6769C37.5947 69.7922 37.5947 69.7922 38.4789 72.5871C37.1589 73.5771 35.8389 74.5671 34.4789 75.5871C32.3421 73.2722 31.5205 71.8602 31.0414 68.7121C31.6764 64.1761 33.9222 61.1474 37.1273 57.9347C39.4269 53.9404 38.4772 49.3362 38.098 44.8742C37.9981 42.6473 37.9975 40.7658 38.4789 38.5871C41.7799 35.0328 44.9841 33.1885 49.4789 31.5246C55.2334 28.8467 56.9387 24.8166 59.3226 19.1339C61.2668 14.8515 63.3295 15.3726 67.4789 16.5871Z" fill="#64CD5B"/>
<path d="M43.4789 56.5869C46.2536 57.8498 49.0235 59.1218 51.7914 60.3994C52.5771 60.7558 53.3627 61.1123 54.1722 61.4795C54.9296 61.8308 55.6869 62.182 56.4672 62.5439C57.1637 62.8634 57.8602 63.1828 58.5778 63.512C60.4789 64.5869 60.4789 64.5869 62.1046 66.2146C63.3911 67.8224 63.3911 67.8224 65.4789 67.5869C65.4789 66.5969 65.4789 65.6069 65.4789 64.5869C66.5288 64.4361 66.5288 64.4361 67.6 64.2822C72.0046 63.2184 75.6844 60.9309 79.639 58.7666C82.4789 57.5869 82.4789 57.5869 84.6469 57.7041C86.8719 58.7763 88.1185 59.9663 89.7289 61.8369C90.2497 62.4196 90.7704 63.0022 91.307 63.6025C92.8367 66.1928 92.9033 67.6161 92.4789 70.5869C87.6722 79.872 79.6314 83.7048 70.4789 87.5869C74.0603 89.4078 74.0603 89.4078 77.9359 88.9072C78.7132 88.5128 79.4905 88.1183 80.2914 87.7119C81.0816 87.3226 81.8718 86.9333 82.6859 86.5322C83.2776 86.2203 83.8693 85.9083 84.4789 85.5869C85.6816 87.9924 85.5796 89.5369 85.5414 92.2119C85.5324 93.0292 85.5233 93.8464 85.514 94.6885C85.5024 95.315 85.4908 95.9414 85.4789 96.5869C84.8872 96.8409 84.2955 97.0948 83.6859 97.3564C75.8633 100.764 71.4257 102.839 67.4789 110.587C65.4789 109.462 65.4789 109.462 63.4789 107.587C63.2289 104.399 63.2289 104.399 63.4789 101.587C63.1489 104.887 62.8189 108.187 62.4789 111.587C61.4889 110.267 60.4989 108.947 59.4789 107.587C58.4972 106.569 57.503 105.562 56.4789 104.587C56.1489 105.247 55.8189 105.907 55.4789 106.587C51.9614 105.532 48.6121 104.271 45.2914 102.712C44.6378 102.405 43.9843 102.098 43.3109 101.782C40.9332 100.231 39.8264 99.115 38.4789 96.5869C38.307 93.1485 38.4097 89.8597 38.5961 86.4307C38.7443 82.0176 38.3861 79.9027 35.4789 76.5869C36.0994 74.9025 36.7718 73.2368 37.4789 71.5869C37.0767 70.2257 37.0767 70.2257 36.6664 68.8369C36.3904 64.0526 38.9206 61.8928 41.9125 58.3447C42.4294 57.7646 42.9463 57.1846 43.4789 56.5869Z" fill="#64CD5B"/>
<path d="M63.4789 21.5869C67.1397 22.8072 67.4023 23.7134 69.1664 27.0244C69.8219 28.229 69.8219 28.229 70.4906 29.458C71.4789 31.5869 71.4789 31.5869 71.4789 33.5869C72.3039 33.8138 73.1289 34.0407 73.9789 34.2744C78.2016 35.8579 82.1649 37.4538 85.4789 40.5869C86.0414 44.0869 86.0414 44.0869 85.4789 47.5869C85.466 48.3952 85.4532 49.2034 85.4399 50.0361C83.884 54.1662 80.401 55.1414 76.5414 56.8994C75.7996 57.2584 75.0577 57.6174 74.2934 57.9873C68.8317 60.5869 68.8317 60.5869 66.4789 60.5869C66.4789 52.6669 66.4789 44.7469 66.4789 36.5869C65.1589 36.5869 63.8389 36.5869 62.4789 36.5869C62.4789 44.5069 62.4789 52.4269 62.4789 60.5869C58.1306 59.1375 54.2636 57.6814 50.1664 55.7119C49.1184 55.2195 48.0704 54.7271 46.9906 54.2197C44.4789 52.5869 44.4789 52.5869 43.6274 50.6885C43.4652 48.3928 43.3826 46.1387 43.4164 43.8369C43.4255 43.0377 43.4345 42.2385 43.4438 41.415C43.4554 40.8118 43.467 40.2085 43.4789 39.5869C43.9984 39.333 44.5179 39.079 45.0531 38.8174C46.5017 38.1025 47.9455 37.378 49.3852 36.6455C50.9646 35.847 52.5617 35.0833 54.1664 34.3369C57.6121 31.7294 59.3519 28.2887 61.4789 24.5869C62.1389 23.5969 62.7989 22.6069 63.4789 21.5869Z" fill="#2A6618"/>
<path d="M89.4789 56.5869C90.1389 56.5869 90.7989 56.5869 91.4789 56.5869C94.8896 60.3948 97.3678 64.0036 97.7289 69.1494C96.5286 72.4502 95.6897 73.5395 93.4164 76.0244C89.6421 80.5572 90.0672 85.2841 90.5255 90.864C90.7615 94.4392 90.6291 96.3358 88.7679 99.4463C86.5008 101.566 84.8644 102.587 81.9789 103.649C75.2672 106.435 72.8533 110.374 69.5297 116.661C68.4789 118.587 68.4789 118.587 67.4789 119.587C67.2481 120.934 67.0674 122.291 66.9164 123.649C66.6998 125.598 66.6998 125.598 66.4789 127.587C65.1589 127.587 63.8389 127.587 62.4789 127.587C62.3861 125.854 62.3861 125.854 62.2914 124.087C61.7722 119.765 60.1064 117.03 57.6937 113.478C56.077 110.961 55.1696 108.488 54.4789 105.587C54.8089 104.927 55.1389 104.267 55.4789 103.587C59.2638 105.101 59.4861 105.601 61.4789 109.587C61.8089 105.297 62.1389 101.007 62.4789 96.5869C62.8089 96.5869 63.1389 96.5869 63.4789 96.5869C63.8089 100.217 64.1389 103.847 64.4789 107.587C65.1389 106.597 65.7989 105.607 66.4789 104.587C66.8089 106.237 67.1389 107.887 67.4789 109.587C68.2214 107.978 68.2214 107.978 68.9789 106.337C71.507 101.884 74.8453 100.413 79.4789 98.5869C80.4689 98.1744 81.4589 97.7619 82.4789 97.3369C83.1389 97.0894 83.7989 96.8419 84.4789 96.5869C84.4789 93.6169 84.4789 90.6469 84.4789 87.5869C81.3704 87.3368 81.3704 87.3368 78.6664 89.2119C75.4789 90.5869 75.4789 90.5869 72.1039 89.7744C71.2376 89.3825 70.3714 88.9907 69.4789 88.5869C71.9947 85.6404 74.7077 84.4901 78.2289 82.9619C84.1831 80.0643 88.5047 76.6086 91.4789 70.5869C91.9013 66.8743 91.7668 65.9738 89.4789 62.8994C88.8189 62.1363 88.1589 61.3732 87.4789 60.5869C87.4789 59.9269 87.4789 59.2669 87.4789 58.5869C88.1389 58.5869 88.7989 58.5869 89.4789 58.5869C89.4789 57.9269 89.4789 57.2669 89.4789 56.5869Z" fill="#64CD5B"/>
<path d="M43.4789 56.5869C46.2739 57.8715 49.0643 59.1658 51.8539 60.4619C52.648 60.8267 53.442 61.1915 54.2602 61.5674C55.401 62.0991 55.401 62.0991 56.5648 62.6416C57.2666 62.9663 57.9683 63.291 58.6913 63.6255C60.4789 64.5869 60.4789 64.5869 62.4789 66.5869C62.706 68.8335 62.706 68.8335 62.6742 71.5947C62.6678 72.5809 62.6613 73.567 62.6547 74.583C62.6379 75.6155 62.6212 76.6481 62.6039 77.7119C62.5949 78.7522 62.5859 79.7925 62.5766 80.8643C62.5529 83.4387 62.52 86.0127 62.4789 88.5869C54.164 87.1277 44.9664 82.1709 39.6664 75.4619C37.589 72.1186 36.0681 69.6133 36.4789 65.5869C38.5506 62.3459 40.9225 59.4557 43.4789 56.5869Z" fill="#2B6919"/>
<path d="M86.4789 58.5868C88.182 60.0399 88.182 60.0399 89.7289 61.8368C90.2497 62.4194 90.7704 63.0021 91.307 63.6024C92.8352 66.1901 92.899 67.6191 92.4789 70.5868C87.681 79.9832 78.8002 84.6283 69.4789 88.5868C68.4889 88.5868 67.4989 88.5868 66.4789 88.5868C66.4789 80.9968 66.4789 73.4068 66.4789 65.5868C69.0364 64.2461 71.5939 62.9055 74.2289 61.5243C75.4272 60.8841 75.4272 60.8841 76.6498 60.231C77.2895 59.9037 77.9292 59.5764 78.5883 59.2391C79.2376 58.8987 79.887 58.5583 80.556 58.2076C82.9376 57.4386 84.157 57.7218 86.4789 58.5868Z" fill="#2C6517"/>
<path d="M83.4789 85.5869C85.4789 87.5869 85.4789 87.5869 85.6742 89.751C85.651 90.5631 85.6278 91.3752 85.6039 92.2119C85.5858 93.0292 85.5678 93.8464 85.5492 94.6885C85.526 95.315 85.5028 95.9414 85.4789 96.5869C84.8872 96.8409 84.2955 97.0948 83.6859 97.3564C75.8633 100.764 71.4257 102.839 67.4789 110.587C67.1489 110.587 66.8189 110.587 66.4789 110.587C66.4789 104.977 66.4789 99.3669 66.4789 93.5869C72.0889 90.9469 77.6989 88.3069 83.4789 85.5869Z" fill="#2D6C1A"/>
<path d="M44.4788 85.5869C50.8047 87.9457 56.5624 91.3598 62.4788 94.5869C62.4788 100.197 62.4788 105.807 62.4788 111.587C59.4788 107.587 59.4788 107.587 58.139 105.005C56.0671 101.987 54.2852 101.25 50.9163 99.8994C45.6403 97.7483 45.6403 97.7483 43.4788 95.5869C43.2774 91.8934 43.3053 89.1075 44.4788 85.5869Z" fill="#2B6B18"/>
<path d="M67.4789 117.587C67.1489 120.887 66.8189 124.187 66.4789 127.587C65.1589 127.587 63.8389 127.587 62.4789 127.587C62.4789 124.617 62.4789 121.647 62.4789 118.587C64.4789 117.587 64.4789 117.587 67.4789 117.587Z" fill="#76CE5D"/>
<circle cx="76.4789" cy="124.587" r="3" fill="#64CD5B"/>
</svg>
